# xmcd
#
# Track frame offsets: 
#        150
#        14565
#        29392
#        46096
#        62981
#        83324
#        100089
#        117709
#        132797
#        150002
#        172845
#        200619
#
# Disc length: 3362 seconds
#
# Revision: 2
# Processed by: cddbd v1.5.2PL0 Copyright (c) Steve Scherf et al.
# Submitted via: ExactAudioCopy v0.95b3
#
DISCID=8c0d200c
DTITLE=Mardi Gras.BB - The Exile Itch
DYEAR=2007
DGENRE=Jazz/Blues
TTITLE0=Now That We're Gone
TTITLE1=Life Is Lonely
TTITLE2=Before You Were My Girl
TTITLE3=Is This Me, My Friend?
TTITLE4=My Soul
TTITLE5=Roses and Vine
TTITLE6=Happy Boy
TTITLE7=Snow On The Meadow
TTITLE8=Hungry Like The Sun
TTITLE9=Who Sent The Rain
TTITLE10=My Heart Flies Back To You
TTITLE11=Enhanced Content
EXTD=
EXTT0=
EXTT1=
EXTT2=
EXTT3=
EXTT4=
EXTT5=
EXTT6=
EXTT7=
EXTT8=
EXTT9=
EXTT10=
EXTT11=
PLAYORDER=
